<svg width="24" height="27" viewBox="0 0 24 27" fill="none" xmlns="http://www.w3.org/2000/svg">
<path d="M17 0.75C17.3062 0.75004 17.6017 0.862445 17.8305 1.06589C18.0593 1.26934 18.2054 1.54969 18.2412 1.85375L18.25 2V3.25H20.75C21.3807 3.2498 21.9882 3.48801 22.4507 3.91687C22.9132 4.34573 23.1964 4.93356 23.2438 5.5625L23.25 5.75V20.75C23.2502 21.3807 23.012 21.9882 22.5831 22.4507C22.1543 22.9132 21.5664 23.1964 20.9375 23.2438L20.75 23.25H3.25C2.61928 23.2502 2.01179 23.012 1.54932 22.5831C1.08684 22.1543 0.803554 21.5664 0.75625 20.9375L0.75 20.75V5.75C0.749801 5.11928 0.988008 4.51179 1.41687 4.04931C1.84573 3.58684 2.43356 3.30355 3.0625 3.25625L3.25 3.25H5.75V2C5.75035 1.6814 5.87235 1.37496 6.09106 1.14329C6.30977 0.91162 6.60869 0.772206 6.92674 0.753535C7.2448 0.734863 7.55797 0.838343 7.80229 1.04283C8.04661 1.24732 8.20362 1.53738 8.24125 1.85375L8.25 2V3.25H15.75V2C15.75 1.66848 15.8817 1.35054 16.1161 1.11612C16.3505 0.881696 16.6685 0.75 17 0.75ZM20.75 12H3.25V20.75H20.75V12ZM20.75 5.75H3.25V9.5H20.75V5.75Z" fill="#979797"/>
</svg>
