<svg width="30" height="30" viewBox="0 0 30 30" fill="none" xmlns="http://www.w3.org/2000/svg">
<path d="M20 3.75C20.3062 3.75004 20.6017 3.86245 20.8305 4.06589C21.0593 4.26934 21.2054 4.54969 21.2412 4.85375L21.25 5V6.25H23.75C24.3807 6.2498 24.9882 6.48801 25.4507 6.91687C25.9132 7.34573 26.1964 7.93356 26.2438 8.5625L26.25 8.75V23.75C26.2502 24.3807 26.012 24.9882 25.5831 25.4507C25.1543 25.9132 24.5664 26.1964 23.9375 26.2438L23.75 26.25H6.25C5.61928 26.2502 5.01179 26.012 4.54932 25.5831C4.08684 25.1543 3.80355 24.5664 3.75625 23.9375L3.75 23.75V8.75C3.7498 8.11928 3.98801 7.51179 4.41687 7.04931C4.84573 6.58684 5.43356 6.30355 6.0625 6.25625L6.25 6.25H8.75V5C8.75035 4.6814 8.87235 4.37496 9.09106 4.14329C9.30977 3.91162 9.60869 3.77221 9.92674 3.75353C10.2448 3.73486 10.558 3.83834 10.8023 4.04283C11.0466 4.24732 11.2036 4.53738 11.2413 4.85375L11.25 5V6.25H18.75V5C18.75 4.66848 18.8817 4.35054 19.1161 4.11612C19.3505 3.8817 19.6685 3.75 20 3.75ZM23.75 15H6.25V23.75H23.75V15ZM23.75 8.75H6.25V12.5H23.75V8.75Z" fill="white"/>
</svg>
