<svg width="33" height="33" viewBox="0 0 33 33" fill="none" xmlns="http://www.w3.org/2000/svg">
<path fill-rule="evenodd" clip-rule="evenodd" d="M16.4169 0.822992H16.5831C19.9504 0.822992 22.5886 0.822992 24.6477 1.10008C26.7536 1.38299 28.4161 1.97508 29.7213 3.27883C31.0265 4.58403 31.6171 6.24653 31.9 8.35383C32.1771 10.4115 32.1771 13.0497 32.1771 16.417V16.5453C32.1771 19.3292 32.1771 21.6072 32.0254 23.4622C31.8738 25.3288 31.5631 26.8849 30.8661 28.1799C30.5608 28.7496 30.1792 29.2634 29.7213 29.7213C28.4161 31.0265 26.7536 31.6172 24.6463 31.9001C22.5886 32.1772 19.9504 32.1772 16.5831 32.1772H16.4169C13.0496 32.1772 10.4115 32.1772 8.35231 31.9001C6.24648 31.6172 4.58398 31.0251 3.27877 29.7213C2.12231 28.5649 1.5244 27.1255 1.20794 25.3376C0.894395 23.5832 0.83752 21.4001 0.825854 18.6905C0.823909 18.0002 0.822937 17.2701 0.822937 16.5001V16.4155C0.822937 13.0482 0.822937 10.4101 1.10002 8.35091C1.38294 6.24508 1.97502 4.58258 3.27877 3.27737C4.58398 1.97216 6.24648 1.38153 8.35377 1.09862C10.4115 0.821533 13.0496 0.821533 16.4169 0.821533M8.64398 3.2657C6.78023 3.51653 5.65585 3.99487 4.82606 4.82466C3.99481 5.65591 3.51794 6.77882 3.2671 8.64403C3.01335 10.5399 3.01044 13.0307 3.01044 16.4986V17.7295L4.47023 16.452C5.11054 15.8914 5.93997 15.5953 6.79049 15.6234C7.641 15.6516 8.44902 16.002 9.05085 16.6036L15.3071 22.8599C15.7926 23.3453 16.4337 23.6438 17.1177 23.7031C17.8017 23.7623 18.4846 23.5783 19.0463 23.1836L19.4809 22.8774C20.2912 22.3079 21.2708 22.0303 22.2595 22.0899C23.2481 22.1495 24.1873 22.5428 24.9234 23.2055L29.0504 26.9199C29.4675 26.0478 29.714 24.9015 29.8452 23.2842C29.9881 21.527 29.9896 19.3365 29.9896 16.4986C29.9896 13.0307 29.9867 10.5399 29.7329 8.64403C29.4821 6.77882 29.0038 5.65445 28.174 4.8232C27.3427 3.99341 26.2198 3.51653 24.3546 3.2657C22.4588 3.01195 19.9679 3.00903 16.5 3.00903C13.0321 3.00903 10.5398 3.01195 8.64398 3.2657Z" fill="white"/>
</svg>
