<svg width="35" height="35" viewBox="0 0 35 35" fill="none" xmlns="http://www.w3.org/2000/svg">
<g clip-path="url(#clip0_34_1463)">
<path d="M28.4375 10.2419C26.7405 7.67934 24.1981 5.7936 21.2534 4.91337C18.3086 4.03313 15.1484 4.21423 12.3235 5.4251C9.4986 6.63597 7.18823 8.7998 5.79512 11.5394C4.40201 14.279 4.01452 17.4207 4.70019 20.4167M28.4375 10.2419H23.3333M28.4375 10.2419V5.10416M6.58581 24.7917C8.28901 27.3453 10.8334 29.2213 13.7765 30.0933C16.7196 30.9653 19.8752 30.7782 22.6946 29.5645C25.514 28.3508 27.8189 26.1873 29.2083 23.4502C30.5978 20.7131 30.984 17.5757 30.2998 14.5833M6.58581 24.7917H11.6666M6.58581 24.7917V29.8958" stroke="white" stroke-width="1.5" stroke-linecap="round" stroke-linejoin="round"/>
</g>
<defs>
<clipPath id="clip0_34_1463">
<rect width="35" height="35" fill="white" transform="matrix(0 -1 1 0 0 35)"/>
</clipPath>
</defs>
</svg>
